<?xml version="1.0" standalone="no"?>
<!DOCTYPE svg PUBLIC "-//W3C//DTD SVG 20010904//EN"
 "http://www.w3.org/TR/2001/REC-SVG-20010904/DTD/svg10.dtd">
<svg version="1.0" xmlns="http://www.w3.org/2000/svg"
 width="1503.000000pt" height="1982.000000pt" viewBox="0 0 1503.000000 1982.000000"
 preserveAspectRatio="xMidYMid meet">

<g transform="translate(0.000000,1982.000000) scale(0.100000,-0.100000)"
fill="#000000" stroke="none">
<path d="M4770 15205 c0 -1810 1 -1838 40 -2075 112 -662 473 -1450 924 -2015
113 -141 377 -401 536 -529 340 -273 780 -521 1152 -651 l108 -38 107 38 c154
53 274 105 463 201 599 304 1101 745 1446 1269 414 629 682 1332 744 1954 6
66 10 725 10 1857 l0 1754 -2765 0 -2765 0 0 -1765z m5398 678 l2 -963 -2635
0 -2635 0 0 958 c0 527 3 962 7 965 3 4 1188 6 2632 5 l2626 -3 3 -962z m0
-1733 c3 -667 -2 -778 -44 -1007 -67 -367 -184 -717 -363 -1088 -342 -707
-737 -1172 -1336 -1569 -256 -171 -498 -298 -745 -394 -157 -61 -139 -61 -301
3 -255 101 -490 225 -739 391 -454 301 -809 667 -1086 1117 -118 190 -307 566
-381 757 -140 358 -222 669 -258 976 -12 102 -15 262 -15 780 0 358 3 654 7
657 3 4 1188 6 2632 5 l2626 -3 3 -625z"/>
<path d="M8730 16724 c-30 -8 -89 -31 -130 -51 -179 -88 -320 -304 -320 -493
l0 -56 -64 -42 c-114 -74 -206 -204 -241 -338 -19 -75 -19 -233 0 -308 20 -76
74 -178 126 -239 147 -171 382 -244 604 -187 43 11 98 31 123 45 l44 25 64
-31 c327 -156 719 12 830 356 33 101 37 247 10 340 -40 136 -131 265 -240 340
-53 37 -55 39 -61 94 -8 84 -43 199 -78 261 -73 129 -230 248 -378 284 -80 20
-215 20 -289 0z m314 -73 c120 -42 219 -119 288 -225 129 -200 103 -483 -62
-655 -100 -104 -219 -159 -364 -168 l-89 -6 7 39 c13 74 10 71 94 76 102 6
190 48 265 127 62 65 91 115 112 198 20 76 19 134 -3 215 -53 189 -221 318
-417 318 -203 0 -381 -143 -420 -339 -11 -54 -12 -54 -63 -71 l-52 -17 0 42
c0 88 67 242 138 319 73 78 189 143 297 166 63 14 203 4 269 -19z m-9 -173
c81 -42 131 -92 169 -170 20 -39 36 -81 36 -94 0 -22 -4 -24 -52 -24 -77 0
-181 -25 -249 -59 l-60 -30 -63 30 c-73 34 -178 59 -253 59 -48 0 -53 2 -52
23 1 58 70 174 133 222 19 15 62 38 93 51 51 22 70 24 153 21 79 -3 104 -8
145 -29z m-340 -370 c81 -21 169 -73 236 -138 65 -64 115 -141 106 -164 -3 -7
-22 -17 -43 -24 -36 -11 -40 -10 -54 8 -91 125 -134 162 -231 200 -199 79
-439 -13 -538 -205 -26 -52 -51 -148 -51 -200 0 -103 53 -225 131 -304 63 -62
131 -98 221 -117 77 -16 124 -14 218 12 l56 15 37 -35 c20 -19 37 -37 37 -39
0 -3 -30 -17 -67 -32 -81 -33 -226 -45 -313 -26 -188 40 -348 191 -404 381
-22 73 -22 218 0 290 48 162 153 282 309 354 91 42 242 52 350 24z m552 8 c3
-3 2 -25 -3 -48 l-9 -43 -63 -7 c-35 -4 -86 -14 -114 -24 l-50 -16 -40 39 -40
40 54 23 c88 39 241 60 265 36z m329 -151 c62 -61 124 -166 139 -232 3 -18 10
-33 15 -33 15 0 2 -212 -15 -265 -65 -193 -220 -338 -402 -375 -82 -18 -234
-8 -303 19 -164 63 -291 204 -335 372 -19 71 -19 200 0 274 16 59 72 175 85
175 4 0 23 -15 43 -32 l37 -33 -30 -60 c-82 -163 -52 -351 76 -486 100 -104
246 -154 379 -129 256 48 414 289 349 535 -20 79 -56 138 -120 202 -56 54 -57
56 -29 141 7 20 41 -2 111 -73z m-897 -24 c19 -11 19 -11 -2 -51 -12 -22 -25
-40 -28 -40 -11 0 -89 89 -89 101 0 14 88 6 119 -10z m511 9 c0 -12 -79 -100
-90 -100 -8 0 -45 79 -39 84 24 21 129 34 129 16z m-686 -35 c11 -19 43 -58
72 -85 l53 -51 -11 -49 c-7 -32 -17 -50 -26 -50 -21 0 -163 148 -190 198 l-23
43 33 14 c53 23 71 19 92 -20z m-139 -87 c38 -65 129 -158 189 -193 45 -27 46
-28 46 -79 0 -69 23 -156 64 -239 33 -68 33 -68 12 -80 -13 -7 -61 -12 -121
-12 -89 0 -106 3 -157 28 -154 76 -241 244 -208 403 7 33 23 79 35 104 22 43
88 120 103 120 4 0 21 -23 37 -52z m1103 15 c19 -21 49 -67 66 -103 27 -57 31
-76 31 -151 0 -78 -3 -91 -38 -161 -42 -87 -92 -136 -177 -177 -48 -23 -68
-26 -155 -26 -61 0 -108 5 -121 12 l-22 13 34 63 c38 73 62 157 66 238 l3 57
65 44 c65 44 159 149 181 201 15 36 25 34 67 -10z m-381 -329 c-7 -72 -61
-210 -89 -228 -14 -8 -24 -4 -51 22 l-33 32 29 60 c16 32 32 79 34 104 5 44 7
46 52 60 25 8 50 14 55 15 5 1 6 -28 3 -65z m-167 4 c-1 -32 -38 -111 -49
-104 -10 7 -41 91 -41 113 0 9 14 13 45 13 40 0 45 -2 45 -22z"/>
<path d="M5710 16624 c-93 -7 -330 -34 -345 -40 -13 -5 -15 -99 -15 -718 l0
-712 108 20 c85 15 156 19 347 20 253 1 331 -9 504 -63 l61 -19 80 23 c254 75
565 85 898 29 l42 -7 -2 714 -3 714 -85 12 c-143 20 -410 35 -505 28 -118 -9
-220 -28 -333 -64 l-91 -28 -70 23 c-163 55 -397 82 -591 68z m409 -89 c41 -9
106 -27 145 -39 l71 -22 3 -543 c2 -514 1 -542 -15 -537 -62 18 -151 37 -233
51 -150 24 -503 18 -643 -11 l-27 -6 2 549 3 548 60 8 c227 30 503 30 634 2z
m1031 9 c90 -8 168 -17 172 -20 4 -3 8 -251 8 -550 l0 -546 -27 6 c-75 16
-225 26 -378 26 -175 0 -292 -14 -437 -50 -42 -11 -79 -20 -82 -20 -3 0 -6
243 -6 540 l0 539 79 25 c68 21 173 45 261 59 61 10 260 6 410 -9z"/>
<path d="M5740 16391 c-106 -15 -130 -22 -140 -41 -13 -23 -4 -47 20 -55 11
-3 56 -1 102 5 141 20 261 15 358 -13 76 -23 87 -24 108 -11 47 30 24 59 -72
90 -66 22 -104 27 -201 30 -66 1 -145 -1 -175 -5z"/>
<path d="M5825 16184 c-124 -12 -207 -28 -220 -41 -21 -21 -18 -40 8 -57 19
-12 37 -11 127 1 130 18 253 12 344 -17 76 -24 111 -21 122 12 10 31 -20 52
-114 77 -79 21 -195 32 -267 25z"/>
<path d="M5701 15956 c-79 -13 -111 -30 -111 -57 0 -23 35 -40 69 -35 20 3
101 8 181 12 128 6 154 4 220 -14 41 -11 82 -23 91 -27 25 -9 63 27 55 53 -6
16 -27 28 -89 48 -67 22 -104 27 -207 30 -73 2 -160 -2 -209 -10z"/>
<path d="M5825 15753 c-110 -9 -207 -27 -220 -40 -21 -21 -18 -40 8 -58 19
-12 33 -13 78 -5 30 6 101 13 159 17 90 5 117 2 190 -17 130 -34 146 -36 159
-11 20 36 -2 58 -77 81 -37 11 -96 24 -132 30 -64 10 -84 10 -165 3z"/>
<path d="M6725 16389 c-80 -17 -155 -43 -166 -55 -6 -7 -9 -23 -7 -36 4 -32
35 -34 131 -7 93 26 228 30 356 10 40 -6 82 -9 92 -6 25 8 35 44 16 62 -31 31
-324 54 -422 32z"/>
<path d="M6661 16159 c-100 -27 -113 -35 -109 -66 5 -45 26 -49 129 -19 106
30 175 32 341 14 96 -11 110 -10 124 4 19 19 11 54 -14 62 -99 31 -364 34
-471 5z"/>
<path d="M6750 15963 c-65 -11 -180 -46 -190 -58 -7 -8 -10 -24 -8 -37 4 -32
35 -34 131 -7 95 27 222 30 353 10 61 -10 87 -10 103 -2 24 14 28 43 6 61 -31
25 -305 48 -395 33z"/>
<path d="M6670 15730 c-110 -30 -120 -36 -120 -70 0 -41 31 -47 116 -20 96 30
185 35 335 20 104 -11 131 -11 144 0 17 14 19 29 6 49 -25 39 -362 54 -481 21z"/>
<path d="M6305 14480 c-27 -5 -67 -6 -87 -3 -44 6 -48 -5 -18 -47 l19 -27 -93
-5 c-71 -4 -105 -11 -147 -30 -52 -25 -100 -61 -99 -76 1 -6 49 -46 95 -77 18
-12 17 -14 -20 -29 -52 -22 -72 -42 -101 -98 -13 -26 -35 -55 -49 -64 -14 -9
-25 -24 -25 -34 0 -25 63 -90 87 -90 11 0 22 -3 26 -6 14 -15 -27 -66 -75 -93
l-51 -29 29 -27 c35 -33 68 -50 112 -60 l33 -7 -22 -35 c-13 -20 -22 -53 -23
-79 0 -24 -4 -44 -8 -44 -11 0 -68 49 -146 124 l-73 71 -39 125 c-21 69 -48
159 -60 200 -40 135 -66 170 -129 170 -20 0 -34 7 -41 21 -13 24 -67 49 -107
49 l-27 0 32 -33 c18 -18 32 -39 32 -46 0 -25 -44 -50 -89 -51 -43 0 -43 0
-21 -18 22 -18 22 -19 6 -65 -9 -26 -16 -54 -16 -62 0 -8 -8 -15 -17 -15 -10
0 -25 -4 -33 -10 -11 -7 -9 -11 12 -19 36 -14 43 -28 39 -87 -4 -68 13 -98 95
-170 46 -40 75 -76 96 -118 17 -34 47 -86 67 -116 20 -30 65 -103 99 -162 58
-100 63 -114 82 -223 11 -66 20 -163 20 -221 0 -117 5 -122 67 -84 20 12 35
15 38 9 16 -25 23 -138 14 -212 -5 -44 -7 -82 -4 -85 10 -10 119 72 150 113
29 40 31 41 95 42 43 0 97 11 160 31 52 17 95 30 95 29 1 -1 16 -26 35 -55 29
-47 34 -51 43 -35 12 22 88 103 98 103 3 0 9 -31 11 -69 6 -85 43 -167 121
-271 32 -41 57 -79 57 -84 0 -4 -16 -76 -35 -160 -46 -196 -99 -372 -134 -450
l-28 -63 -78 -6 c-43 -4 -111 -7 -152 -7 -72 0 -130 -16 -163 -44 -8 -7 -28
-16 -43 -20 -31 -7 -72 -46 -80 -75 -4 -18 -2 -18 29 -5 45 19 51 18 58 -12 5
-17 0 -33 -14 -51 -32 -41 -27 -55 16 -37 20 8 37 14 38 12 34 -46 35 -51 20
-79 -22 -43 -18 -51 16 -34 30 15 32 15 61 -10 25 -21 41 -25 92 -25 69 0 385
72 431 98 42 25 62 56 101 161 19 51 68 148 109 214 65 106 85 130 151 182 42
33 118 83 168 112 51 29 99 56 107 61 13 8 13 11 1 26 -8 10 -28 24 -44 32
l-29 16 23 24 c42 44 107 81 177 100 37 9 69 19 71 20 6 5 -40 74 -56 82 -12
7 -2 17 43 46 80 50 153 70 226 62 56 -6 58 -5 58 18 0 14 -12 38 -26 55 l-26
31 34 14 c80 34 77 35 149 -77 37 -56 104 -146 149 -200 l83 -99 -12 -39 c-7
-22 -45 -117 -86 -212 l-73 -172 -44 -6 c-24 -4 -92 -7 -153 -8 -114 -2 -174
-18 -204 -54 -7 -10 -22 -17 -33 -17 -24 0 -88 -61 -88 -83 0 -14 4 -14 36 -1
63 26 81 2 44 -58 -30 -50 -26 -61 15 -41 33 16 36 16 52 0 16 -16 16 -19 0
-52 -23 -48 -21 -59 5 -41 30 21 43 20 79 -6 24 -18 43 -23 87 -22 65 2 347
73 395 101 23 13 44 42 75 102 80 158 101 189 160 233 32 24 79 54 105 68 26
14 47 30 47 36 0 15 -33 44 -51 44 -8 1 8 21 34 45 34 31 67 50 110 64 l62 19
-50 31 c-28 18 -61 35 -75 37 -19 5 -32 21 -54 71 -28 61 -29 68 -18 120 12
60 56 163 69 163 4 0 23 -20 41 -44 17 -24 99 -117 182 -207 128 -141 148
-168 143 -189 -18 -80 -92 -290 -133 -377 l-49 -103 -133 0 c-146 0 -193 -9
-235 -44 -15 -13 -44 -31 -64 -40 -22 -10 -42 -30 -52 -52 -22 -45 -21 -48 5
-30 53 37 94 6 58 -44 -11 -15 -20 -35 -20 -44 0 -13 4 -13 34 -1 33 14 36 14
54 -10 19 -24 19 -28 5 -56 -18 -37 -12 -46 17 -26 20 14 25 13 57 -9 24 -16
50 -24 77 -24 58 1 374 84 405 108 42 30 62 68 150 273 46 107 91 203 100 213
14 17 182 131 203 138 16 6 -3 38 -29 52 l-25 13 46 38 c25 21 74 48 108 60
l62 22 -55 32 c-30 17 -70 34 -91 37 -24 4 -38 13 -41 25 -3 10 -20 27 -38 36
-57 31 -116 92 -137 141 -32 75 -42 160 -42 377 0 201 -11 336 -34 426 l-13
49 31 4 c17 2 83 12 147 20 164 23 270 51 376 101 163 77 236 172 236 309 0
198 -116 310 -333 323 -115 7 -231 -15 -437 -81 -310 -101 -478 -130 -773
-130 -176 -1 -202 1 -267 22 -82 25 -129 65 -139 117 -8 42 11 102 43 136 43
46 94 54 360 54 232 0 242 -1 265 -21 103 -94 393 -127 613 -70 l50 13 -32 16
c-32 17 -70 63 -61 73 3 2 17 0 32 -6 55 -21 132 -12 229 26 78 31 105 37 175
38 l83 1 -28 23 c-78 64 -113 77 -210 77 -51 0 -93 3 -93 7 0 4 8 13 18 20 20
14 46 57 40 63 -2 3 -26 -2 -53 -10 -67 -21 -168 -19 -260 5 -169 43 -334 21
-451 -61 l-49 -34 -285 0 c-269 0 -289 -1 -352 -23 -138 -47 -211 -150 -211
-297 0 -173 88 -269 298 -322 102 -25 494 -25 650 0 178 30 289 56 459 109 89
27 205 56 259 65 159 27 235 -2 256 -99 18 -76 -45 -140 -178 -182 -101 -32
-167 -44 -349 -61 -138 -13 -163 -13 -250 1 -81 14 -134 15 -327 8 -555 -21
-799 -10 -1052 48 -86 20 -93 23 -98 49 -4 15 -15 39 -26 53 l-19 24 32 7 c39
8 106 45 131 72 17 19 16 20 -24 38 -62 29 -117 105 -74 105 31 0 63 24 85 62
21 38 21 40 4 53 -11 8 -22 15 -26 15 -4 0 -17 19 -29 43 -29 57 -75 104 -117
118 -33 11 -34 12 -15 23 11 6 39 27 61 47 l42 36 -23 21 c-12 11 -49 33 -82
48 -51 24 -73 28 -152 29 -87 0 -107 5 -83 20 6 3 17 19 25 35 l15 29 -52 -1
c-29 -1 -105 2 -169 7 -161 11 -227 -13 -270 -98 l-21 -41 -19 36 c-23 46 -70
84 -117 98 -42 11 -171 11 -247 0z m2179 -220 c118 -7 163 -13 174 -24 12 -12
13 -18 3 -30 -10 -12 -61 -15 -289 -18 -256 -3 -280 -5 -322 -24 -25 -12 -53
-30 -63 -42 -41 -46 -59 -149 -36 -209 38 -101 165 -143 430 -143 269 0 491
35 740 115 252 82 327 99 444 98 110 0 157 -13 229 -62 54 -37 86 -99 93 -181
8 -86 -11 -141 -68 -205 -100 -109 -282 -173 -596 -210 -69 -8 -128 -17 -130
-19 -2 -2 5 -39 16 -82 29 -117 41 -250 41 -472 0 -110 5 -223 10 -252 21
-112 87 -207 173 -251 49 -26 48 -47 -10 -139 -55 -89 -171 -326 -243 -500
-70 -167 -96 -217 -123 -234 -33 -21 -283 -88 -352 -93 -50 -5 -58 -3 -47 8
13 14 17 79 5 79 -5 0 -25 -5 -46 -11 -44 -12 -64 -4 -42 17 16 16 19 42 9 67
-4 12 -12 13 -37 6 -38 -11 -43 -6 -23 23 9 12 16 33 16 45 0 39 34 47 203 51
l158 4 39 79 c56 111 97 215 136 352 19 65 34 120 34 123 0 2 -71 81 -158 176
-168 184 -254 294 -375 478 -68 105 -128 169 -194 210 -17 11 -24 11 -37 1
-13 -11 -11 -18 15 -62 16 -27 29 -53 29 -57 0 -4 -239 -76 -531 -161 -498
-145 -530 -156 -525 -175 3 -12 11 -46 18 -77 l11 -56 -88 -149 c-48 -82 -157
-262 -241 -400 -103 -168 -165 -281 -189 -345 -53 -136 -60 -142 -250 -190
-88 -22 -186 -43 -217 -46 l-57 -6 6 52 c6 56 4 58 -54 42 -35 -10 -54 2 -34
22 6 6 11 26 11 45 l0 34 -40 -7 c-45 -8 -49 -4 -20 25 11 11 20 31 20 44 0
36 42 46 194 47 72 1 142 4 155 8 48 13 110 180 190 508 43 179 52 205 80 235
54 57 132 177 152 233 12 33 19 81 19 123 0 76 8 95 24 58 6 -13 32 -46 57
-74 l46 -50 31 51 c55 92 65 131 64 252 0 61 1 118 4 128 6 18 7 18 27 -1 28
-25 64 -43 103 -52 l32 -7 4 63 c3 55 14 84 81 216 42 84 82 176 88 203 7 28
14 53 18 57 3 4 42 -2 86 -13 217 -52 524 -76 771 -59 358 23 452 24 587 5
112 -16 144 -16 269 -6 251 22 388 53 488 113 97 59 124 147 73 244 -28 55
-71 77 -162 82 -99 6 -205 -15 -406 -78 -276 -87 -499 -123 -765 -124 -283 0
-422 34 -506 126 -54 58 -68 102 -62 193 10 150 98 231 278 254 90 12 169 12
354 1z m-1856 -57 l41 -48 43 49 43 49 108 -46 c100 -43 111 -46 170 -40 57 5
65 3 94 -21 53 -44 50 -102 -9 -163 l-30 -31 36 -61 36 -62 -105 -126 -105
-126 0 -81 0 -81 -42 -27 c-37 -23 -43 -33 -57 -90 -21 -83 -39 -93 -181 -93
-152 0 -167 10 -194 135 -3 16 -22 35 -51 52 l-45 28 0 83 0 83 -101 122 -100
122 36 61 35 61 -30 28 c-59 55 -62 120 -7 166 29 24 37 26 97 21 61 -5 71 -3
160 38 52 23 100 43 106 44 7 1 30 -20 52 -46z m-1134 -81 c9 -21 38 -113 66
-207 28 -93 60 -189 71 -212 22 -45 111 -134 214 -212 63 -47 68 -54 147 -211
75 -148 83 -169 86 -231 4 -68 4 -69 31 -63 42 10 112 45 118 60 14 37 21 2
25 -123 2 -76 8 -146 12 -155 6 -14 -6 -21 -76 -43 -46 -15 -108 -29 -138 -32
-54 -4 -55 -4 -81 34 -37 53 -147 236 -312 518 -77 132 -150 254 -162 270 -13
17 -39 62 -58 100 -27 54 -49 81 -95 119 -58 46 -92 95 -92 131 0 12 5 15 16
11 20 -8 64 19 64 39 0 8 -16 26 -35 41 -35 27 -45 62 -26 92 7 11 9 11 14 -2
4 -9 17 -16 31 -16 59 0 72 26 34 67 -28 29 -12 49 35 45 20 -2 38 3 46 11 18
23 47 9 65 -31z m2988 -1457 l77 -74 -41 -87 c-56 -120 -62 -192 -23 -274 l28
-58 -40 -49 c-35 -42 -130 -216 -263 -484 -21 -42 -50 -85 -64 -96 -46 -37
-416 -123 -416 -97 0 3 5 14 11 25 5 11 7 29 3 41 -5 18 -12 20 -50 14 -41 -5
-58 4 -34 19 6 3 10 22 10 42 0 35 0 35 -35 29 -34 -7 -44 1 -26 19 5 6 11 24
13 40 4 43 45 54 205 54 72 1 142 5 155 10 20 7 41 50 112 215 106 250 108
265 45 333 -57 61 -167 203 -208 267 -49 79 -48 80 79 73 97 -5 110 -4 110 11
0 8 -10 26 -22 39 -12 13 -18 26 -15 30 15 15 127 31 217 32 l95 1 77 -75z"/>
<path d="M6415 13922 c17 -10 56 -33 88 -51 l57 -32 0 50 0 51 -87 0 -88 0 30
-18z"/>
<path d="M6758 13773 l-3 -168 -117 -5 -116 -5 64 -44 c63 -44 64 -45 64 -91
0 -43 -2 -48 -39 -68 -22 -13 -56 -22 -80 -22 -32 0 -39 -3 -35 -15 9 -21 79
-19 131 5 41 18 43 18 82 -1 49 -23 131 -26 131 -4 0 11 -11 15 -35 15 -20 0
-54 9 -75 20 -38 19 -40 23 -40 68 l0 48 70 38 c39 20 70 38 70 39 0 1 -7 58
-15 126 -8 69 -13 126 -12 127 1 1 40 25 87 53 l85 51 -107 0 -108 0 -2 -167z"/>
<path d="M10845 9200 c-142 -8 -170 -11 -325 -42 -448 -87 -736 -322 -804
-656 -50 -240 -15 -486 96 -673 56 -95 189 -229 299 -302 160 -106 302 -169
744 -333 327 -121 491 -206 578 -303 82 -91 116 -204 97 -324 -37 -243 -236
-388 -584 -426 -409 -46 -932 80 -1213 293 l-73 55 0 -269 0 -270 48 -24 c123
-62 368 -129 617 -168 189 -29 636 -37 828 -14 592 72 947 321 1049 735 17 69
22 117 22 241 0 138 -3 166 -26 252 -48 172 -120 290 -260 424 -179 172 -365
273 -871 475 -466 186 -625 282 -697 426 -28 56 -39 173 -21 239 27 102 110
182 241 233 203 79 571 92 840 30 186 -43 404 -129 533 -212 l57 -37 0 229 0
229 -72 30 c-293 121 -718 183 -1103 162z"/>
<path d="M2840 7470 l0 -1640 225 0 225 0 0 1195 c0 657 3 1195 8 1195 4 0 47
-58 96 -128 1041 -1488 1476 -2105 1510 -2140 22 -24 59 -54 82 -68 84 -50
118 -54 432 -54 l292 0 0 1640 0 1640 -225 0 -225 0 0 -1200 c0 -660 -3 -1200
-7 -1200 -5 0 -361 505 -793 1123 -432 617 -803 1140 -826 1162 -53 52 -134
91 -215 104 -35 6 -180 11 -321 11 l-258 0 0 -1640z"/>
<path d="M6370 7963 c0 -1229 1 -1240 51 -1423 24 -87 93 -237 140 -307 183
-270 473 -428 896 -489 146 -22 513 -24 653 -5 573 78 917 329 1058 771 62
195 62 191 62 1454 l0 1146 -335 0 -335 0 -1 -807 c0 -445 -4 -977 -9 -1183
-9 -427 -14 -457 -96 -629 -81 -166 -217 -277 -409 -333 -69 -20 -102 -23
-245 -23 -143 0 -176 3 -245 23 -191 55 -326 166 -409 333 -59 119 -83 218
-96 383 -6 76 -10 577 -10 1184 l0 1052 -335 0 -335 0 0 -1147z"/>
<path d="M6780 4690 l0 -390 50 0 50 0 0 390 0 390 -50 0 -50 0 0 -390z"/>
<path d="M4610 5005 l0 -55 50 0 50 0 0 55 0 55 -50 0 -50 0 0 -55z"/>
<path d="M8740 5005 l0 -55 55 0 55 0 0 55 0 55 -55 0 -55 0 0 -55z"/>
<path d="M10970 5005 l0 -55 55 0 55 0 0 55 0 55 -55 0 -55 0 0 -55z"/>
<path d="M2850 4665 l0 -365 50 0 50 0 0 296 c0 176 4 293 9 290 5 -4 81 -137
168 -296 l158 -290 68 0 67 0 0 365 0 365 -50 0 -50 0 0 -292 c0 -215 -3 -289
-11 -281 -6 6 -80 137 -164 290 l-152 278 -72 3 -71 3 0 -366z"/>
<path d="M7340 4778 c0 -287 9 -339 66 -407 52 -60 112 -85 209 -85 99 0 146
15 201 66 77 71 84 105 84 413 l0 265 -50 0 -50 0 0 -247 c0 -150 -4 -264 -11
-288 -34 -123 -198 -166 -288 -76 -55 55 -61 93 -61 370 l0 241 -50 0 -50 0 0
-252z"/>
<path d="M4270 4966 c-34 -12 -35 -14 -38 -74 l-3 -62 -59 0 -60 0 0 -40 0
-40 59 0 59 0 4 -182 c4 -203 12 -234 68 -263 39 -20 107 -28 145 -17 26 7 30
14 33 46 l3 37 -35 -7 c-100 -18 -116 13 -116 226 l0 160 70 0 70 0 0 40 0 40
-70 0 -70 0 0 75 c0 82 0 82 -60 61z"/>
<path d="M11333 4968 c-33 -11 -33 -12 -33 -74 l0 -64 -60 0 -60 0 0 -40 0
-40 60 0 60 0 0 -175 c0 -183 7 -222 46 -257 28 -24 99 -40 150 -32 43 6 44 7
44 44 l0 38 -39 -5 c-91 -12 -111 31 -111 237 l0 150 75 0 75 0 0 40 0 40 -75
0 -75 0 0 75 c0 81 0 81 -57 63z"/>
<path d="M3730 4834 c-99 -33 -100 -33 -100 -78 l0 -43 49 24 c120 60 241 17
241 -86 l0 -29 -102 -4 c-121 -4 -187 -30 -226 -88 -33 -49 -28 -146 8 -186
42 -44 79 -58 155 -58 74 0 102 10 148 52 l27 26 0 -32 c0 -31 1 -32 45 -32
l45 0 0 175 c0 252 -16 306 -104 346 -39 18 -148 25 -186 13z m190 -331 c0
-93 -66 -151 -159 -140 -73 8 -111 70 -80 129 18 34 86 58 167 58 l72 0 0 -47z"/>
<path d="M5023 4824 c-51 -18 -112 -76 -137 -129 -23 -48 -32 -156 -17 -210
63 -235 379 -275 497 -63 26 48 29 62 29 143 0 102 -18 147 -79 207 -65 63
-195 86 -293 52z m149 -64 c45 -13 103 -75 117 -127 39 -140 -38 -273 -159
-273 -221 0 -226 391 -5 409 6 1 26 -4 47 -9z"/>
<path d="M5722 4825 c-19 -8 -47 -29 -63 -46 l-29 -31 0 41 0 41 -45 0 -45 0
0 -265 0 -265 44 0 44 0 4 163 c5 174 14 214 61 261 14 14 43 30 66 36 36 9
48 8 79 -7 64 -31 75 -68 80 -275 l5 -178 43 0 44 0 0 183 c0 189 -8 242 -43
291 -42 59 -167 85 -245 51z"/>
<path d="M6263 4819 c-53 -20 -53 -21 -53 -63 l0 -43 49 24 c120 60 241 17
241 -86 l0 -29 -102 -4 c-85 -2 -112 -7 -153 -28 -73 -37 -98 -78 -93 -159 4
-58 7 -66 40 -96 56 -52 172 -67 243 -32 11 5 32 21 48 35 l27 26 0 -32 c0
-31 1 -32 45 -32 l45 0 0 175 c0 252 -16 306 -104 346 -56 25 -164 24 -233 -2z
m237 -316 c0 -93 -66 -151 -159 -140 -73 8 -111 70 -80 129 18 34 86 58 167
58 l72 0 0 -47z"/>
<path d="M8275 4827 c-16 -8 -41 -26 -55 -40 -33 -35 -40 -34 -40 8 0 35 0 35
-45 35 l-45 0 0 -265 0 -265 44 0 44 0 4 163 c5 174 14 214 61 261 14 14 43
30 66 36 36 9 48 8 79 -7 66 -33 75 -61 80 -269 l5 -184 44 0 44 0 -3 203 c-3
226 -10 255 -75 304 -28 21 -47 27 -106 30 -47 2 -82 -1 -102 -10z"/>
<path d="M9665 4821 c-89 -40 -136 -118 -143 -233 -9 -147 53 -257 163 -289
62 -18 165 -18 228 0 l47 14 0 49 0 48 -41 -21 c-115 -58 -233 -26 -280 76
-36 78 -43 75 171 75 l190 0 0 48 c0 106 -50 199 -124 233 -55 25 -157 25
-211 0z m173 -78 c31 -19 62 -72 62 -105 l0 -28 -140 0 c-105 0 -140 3 -140
13 1 22 37 92 58 110 42 38 110 42 160 10z"/>
<path d="M10315 4828 c-11 -6 -35 -24 -52 -41 l-33 -31 0 37 0 37 -45 0 -45 0
0 -265 0 -265 49 0 49 0 4 173 c3 152 5 176 24 207 31 54 80 83 132 77 l42 -5
0 44 0 44 -52 0 c-29 0 -62 -6 -73 -12z"/>
<path d="M10606 4830 c-66 -20 -115 -104 -102 -175 8 -41 56 -85 132 -124 103
-51 124 -97 68 -148 -30 -27 -82 -30 -144 -8 -23 8 -44 15 -47 15 -2 0 -3 -19
-1 -42 l3 -43 55 -13 c145 -36 263 33 264 152 1 73 -20 100 -125 156 -97 52
-122 84 -95 125 24 36 71 48 135 31 59 -15 65 -11 59 40 -2 20 -10 30 -28 35
-35 10 -139 9 -174 -1z"/>
<path d="M4610 4565 l0 -265 50 0 50 0 0 265 0 265 -50 0 -50 0 0 -265z"/>
<path d="M8750 4565 l0 -265 45 0 45 0 0 265 0 265 -45 0 -45 0 0 -265z"/>
<path d="M8960 4823 c0 -5 41 -124 92 -265 l92 -258 61 0 60 0 23 68 c13 37
52 146 87 242 89 248 85 222 30 218 l-47 -3 -70 -205 c-39 -113 -74 -209 -78
-213 -4 -5 -40 88 -80 207 l-72 216 -49 0 c-27 0 -49 -3 -49 -7z"/>
<path d="M10970 4565 l0 -265 50 0 50 0 0 265 0 265 -50 0 -50 0 0 -265z"/>
<path d="M11590 4828 c0 -2 45 -126 100 -277 55 -151 100 -279 100 -285 0 -5
-9 -29 -21 -53 -24 -49 -61 -73 -114 -73 -33 0 -35 -2 -35 -35 0 -29 4 -36 25
-41 38 -9 104 4 136 27 47 33 72 89 189 414 62 170 114 313 116 317 3 5 -17 8
-45 8 l-49 0 -72 -215 c-39 -118 -75 -215 -79 -215 -3 0 -38 96 -77 213 l-70
212 -52 3 c-29 2 -52 2 -52 0z"/>
<path d="M5217 3836 c-73 -26 -94 -63 -104 -181 l-6 -75 -58 0 -59 0 0 -35 0
-35 60 0 60 0 0 -230 0 -230 50 0 50 0 0 230 0 230 70 0 70 0 0 35 0 35 -70 0
-70 0 0 60 c0 64 18 113 45 124 9 3 34 6 55 6 36 0 38 2 42 35 3 23 -1 36 -10
40 -24 9 -86 5 -125 -9z"/>
<path d="M6260 3760 l0 -50 50 0 50 0 0 50 0 50 -50 0 -50 0 0 -50z"/>
<path d="M5816 3776 c-50 -19 -102 -70 -117 -114 -6 -19 -9 -59 -7 -88 7 -78
42 -117 159 -177 128 -64 157 -98 149 -172 -8 -82 -131 -123 -247 -81 -47 17
-53 12 -53 -49 0 -32 2 -34 53 -45 29 -7 87 -11 128 -8 144 7 219 71 227 193
8 117 -37 175 -193 251 -87 43 -115 73 -115 123 0 76 79 110 198 85 36 -8 66
-13 67 -11 1 1 5 21 8 44 6 52 2 54 -123 59 -67 3 -106 0 -134 -10z"/>
<path d="M4512 3564 c-100 -50 -149 -146 -140 -273 11 -148 119 -250 263 -251
84 0 125 14 179 61 61 54 88 108 94 190 13 182 -92 299 -269 299 -61 0 -85 -5
-127 -26z m203 -67 c53 -29 95 -109 95 -182 0 -77 -42 -153 -100 -182 -24 -13
-56 -23 -70 -23 -14 0 -46 10 -70 23 -58 29 -100 105 -100 182 0 77 42 153
100 183 56 28 94 28 145 -1z"/>
<path d="M6730 3579 c-14 -5 -40 -24 -57 -42 l-33 -31 0 37 0 37 -50 0 -50 0
0 -265 0 -265 49 0 49 0 4 173 c3 161 5 175 27 214 46 80 150 106 207 52 37
-34 44 -79 44 -266 l0 -173 51 0 51 0 -4 198 c-4 172 -7 203 -25 243 -31 69
-72 93 -163 96 -41 2 -86 -2 -100 -8z"/>
<path d="M7295 3574 c-170 -88 -192 -379 -37 -489 40 -27 51 -30 121 -30 70 0
83 3 130 33 29 17 55 32 58 32 3 0 3 -25 -1 -57 -18 -152 -128 -208 -298 -150
l-66 23 -4 -43 -3 -44 55 -16 c66 -19 200 -21 255 -3 56 18 102 54 128 103 21
40 22 53 25 345 l3 302 -45 0 -46 0 0 -36 0 -36 -29 31 c-16 17 -41 35 -55 41
-42 16 -157 12 -191 -6z m194 -81 c43 -31 73 -104 74 -176 1 -113 -64 -190
-160 -190 -54 0 -89 24 -122 82 -50 91 -21 236 59 289 42 28 106 26 149 -5z"/>
<path d="M7910 3572 c-43 -17 -45 -20 -48 -61 -2 -24 0 -41 5 -39 91 46 151
57 208 38 42 -14 75 -60 75 -105 l0 -30 -88 -1 c-174 -1 -262 -62 -262 -182 0
-97 66 -152 183 -152 71 0 112 14 155 53 l22 20 0 -31 c0 -31 1 -32 45 -32
l45 0 0 183 c-1 238 -10 276 -84 331 -38 29 -190 34 -256 8z m240 -313 c0 -69
-27 -112 -85 -135 -112 -42 -212 50 -142 131 26 31 98 53 175 54 l52 1 0 -51z"/>
<path d="M8595 3571 c-22 -10 -46 -25 -54 -34 -20 -25 -31 -21 -31 13 0 29 -2
30 -45 30 l-45 0 0 -375 0 -375 45 0 45 0 0 140 c0 77 3 140 6 140 3 0 23 -14
45 -32 34 -28 48 -32 117 -36 66 -4 85 -1 120 17 82 42 124 129 125 261 1 68
-3 95 -21 135 -28 60 -66 103 -109 121 -46 20 -150 17 -198 -5z m159 -76 c101
-66 93 -293 -13 -362 -42 -28 -80 -29 -130 -3 -126 64 -125 310 0 374 41 20
104 16 143 -9z"/>
<path d="M9185 3571 c-96 -44 -145 -119 -153 -235 -6 -98 22 -169 88 -229 56
-50 103 -67 189 -67 75 0 124 19 174 68 56 54 79 105 85 188 8 127 -43 224
-142 270 -65 31 -180 33 -241 5z m190 -74 c29 -16 48 -37 68 -76 86 -171 -48
-363 -205 -293 -53 23 -82 61 -99 126 -25 99 18 212 94 247 55 24 93 24 142
-4z"/>
<path d="M9869 3572 c-15 -9 -36 -28 -48 -42 l-20 -25 -1 38 0 37 -45 0 -45 0
0 -265 0 -265 44 0 43 0 5 158 c4 143 7 163 30 214 31 68 68 92 134 86 l44 -3
0 42 0 43 -57 0 c-38 0 -67 -6 -84 -18z"/>
<path d="M10224 3571 c-87 -40 -140 -138 -137 -256 2 -143 62 -234 172 -265
48 -13 176 -11 226 4 39 11 40 13 43 60 3 44 1 48 -15 41 -107 -47 -154 -53
-211 -30 -67 29 -112 86 -112 145 l0 30 190 0 190 0 0 28 c0 51 -27 142 -54
183 -37 55 -91 79 -181 79 -47 0 -84 -7 -111 -19z m173 -71 c41 -25 62 -56 65
-100 l3 -35 -139 -3 -139 -3 6 36 c16 99 123 155 204 105z"/>
<path d="M6260 3315 l0 -265 50 0 50 0 0 265 0 265 -50 0 -50 0 0 -265z"/>
</g>
</svg>
